<svg width="24" height="27" viewBox="0 0 24 27" fill="none" xmlns="http://www.w3.org/2000/svg">
<path d="M20.044 14.3443C20.0853 18.4301 23.9573 19.79 24 19.8074C23.9673 19.903 23.3815 21.7451 21.9603 23.6474C20.7318 25.2922 19.4566 26.9308 17.4483 26.9652C15.4748 26.9982 14.8401 25.8929 12.5836 25.8929C10.3278 25.8929 9.62293 26.9308 7.75456 26.9982C5.81573 27.0656 4.33931 25.2194 3.10061 23.5809C0.56959 20.2288 -1.36474 14.1085 1.23248 9.97725C2.52266 7.92564 4.82876 6.62665 7.33154 6.59318C9.23526 6.55993 11.0322 7.76634 12.1959 7.76634C13.359 7.76634 15.5426 6.31543 17.8383 6.52842C18.7994 6.56515 21.497 6.88397 23.2292 9.20681C23.0899 9.28614 20.0106 10.9283 20.044 14.3443ZM16.3351 4.31099C17.3643 3.16978 18.057 1.58065 17.8682 0C16.3844 0.0545502 14.5903 0.90562 13.5262 2.04639C12.5725 3.05633 11.7373 4.67328 11.9625 6.22263C13.6164 6.33999 15.3056 5.45284 16.3351 4.31099Z" fill="black"/>
</svg>
