<svg width="15" height="16" viewBox="0 0 15 16" fill="none" xmlns="http://www.w3.org/2000/svg">
<path d="M3.61111 7.26017H5.16667V8.73986H3.61111V7.26017ZM14.5 3.56095V13.9188C14.5 14.7326 13.8 15.3985 12.9444 15.3985H2.05556C1.643 15.3985 1.24733 15.2426 0.955612 14.9651C0.663888 14.6876 0.5 14.3112 0.5 13.9188L0.507778 3.56095C0.507778 2.74711 1.19222 2.08125 2.05556 2.08125H2.83333V0.601562H4.38889V2.08125H10.6111V0.601562H12.1667V2.08125H12.9444C13.8 2.08125 14.5 2.74711 14.5 3.56095ZM2.05556 5.04064H12.9444V3.56095H2.05556V5.04064ZM12.9444 13.9188V6.52033H2.05556V13.9188H12.9444ZM9.83333 8.73986H11.3889V7.26017H9.83333V8.73986ZM6.72222 8.73986H8.27778V7.26017H6.72222V8.73986Z" fill="#555555"/>
</svg>
