<svg width="14" height="14" viewBox="0 0 14 14" fill="none" xmlns="http://www.w3.org/2000/svg">
<path d="M7 0.0476074C3.1402 0.0476074 0 3.16644 0 6.99998C0 10.8335 3.1402 13.9524 7 13.9524C10.8598 13.9524 14 10.8335 14 6.99998C14 3.16644 10.8598 0.0476074 7 0.0476074ZM7 12.5619C3.9123 12.5619 1.4 10.0667 1.4 6.99998C1.4 3.93329 3.9123 1.43808 7 1.43808C10.0877 1.43808 12.6 3.93329 12.6 6.99998C12.6 10.0667 10.0877 12.5619 7 12.5619Z" fill="#555555"/>
<path d="M7.70029 3.52368H6.30029V7.2877L8.60539 9.57711L9.59519 8.59405L7.70029 6.71204V3.52368Z" fill="#555555"/>
</svg>
