<svg width="25" height="26" viewBox="0 0 25 26" fill="none" xmlns="http://www.w3.org/2000/svg">
<path d="M22.3646 10.7618H21.5384V10.7173H12.3077V15.0042H18.1041C17.2584 17.4997 14.9861 19.2911 12.3077 19.2911C8.90922 19.2911 6.15383 16.4119 6.15383 12.8607C6.15383 9.30961 8.90922 6.43043 12.3077 6.43043C13.8764 6.43043 15.3036 7.04881 16.3902 8.05891L19.2913 5.02755C17.4595 3.24367 15.0092 2.14355 12.3077 2.14355C6.64358 2.14355 2.05127 6.94218 2.05127 12.8607C2.05127 18.7793 6.64358 23.5779 12.3077 23.5779C17.9718 23.5779 22.5641 18.7793 22.5641 12.8607C22.5641 12.1422 22.4933 11.4407 22.3646 10.7618Z" fill="#FFC107"/>
<path d="M3.23386 7.87243L6.6036 10.4547C7.51539 8.09588 9.7236 6.43043 12.3077 6.43043C13.8764 6.43043 15.3036 7.04881 16.3903 8.05891L19.2913 5.02755C17.4595 3.24367 15.0092 2.14355 12.3077 2.14355C8.36822 2.14355 4.9518 4.46758 3.23386 7.87243Z" fill="#FF3D00"/>
<path d="M12.3077 23.578C14.9569 23.578 17.3641 22.5186 19.1841 20.7958L16.0097 17.989C14.9454 18.8348 13.6448 19.2923 12.3077 19.2911C9.63999 19.2911 7.37486 17.5137 6.52153 15.0332L3.17691 17.7259C4.87435 21.1967 8.32153 23.578 12.3077 23.578Z" fill="#4CAF50"/>
<path d="M22.3646 10.7613H21.5384V10.7168H12.3077V15.0037H18.1041C17.6996 16.1914 16.9709 17.2292 16.0082 17.9889L16.0097 17.9879L19.1841 20.7947C18.9595 21.008 22.5641 18.2188 22.5641 12.8602C22.5641 12.1416 22.4933 11.4402 22.3646 10.7613Z" fill="#1976D2"/>
</svg>
