<svg width="12" height="14" viewBox="0 0 12 14" fill="none" xmlns="http://www.w3.org/2000/svg">
<path d="M11.7558 13.0825C10.886 11.244 9.53258 9.9325 7.95064 9.33889C8.69469 8.83396 9.28704 8.0535 9.64268 7.11122C10.0185 6.11555 10.1091 4.99485 9.90047 3.92919C9.69185 2.86359 9.1956 1.9125 8.48905 1.23056C7.7822 0.548319 6.90552 0.175 6 0.175C5.09447 0.175 4.2178 0.548319 3.51094 1.23056C2.8044 1.9125 2.30814 2.86359 2.09952 3.92919C1.89089 4.99485 1.98151 6.11555 2.35731 7.11122C2.71295 8.05348 3.30528 8.83393 4.0493 9.33885C2.46737 9.93185 1.11395 11.2434 0.244212 13.0825M11.7558 13.0825L0.244881 13.0812C0.244657 13.0817 0.244434 13.0821 0.244212 13.0825M11.7558 13.0825C11.784 13.1372 11.8027 13.1976 11.8111 13.2603C11.8195 13.3234 11.8175 13.3879 11.8051 13.4502C11.7926 13.5124 11.7699 13.5716 11.7377 13.6241C11.7055 13.6765 11.6644 13.7216 11.616 13.7558C11.5676 13.7901 11.5131 13.8126 11.4556 13.8212C11.3981 13.8297 11.3399 13.8239 11.2848 13.8043C11.2299 13.7848 11.1798 13.7523 11.1373 13.7097C11.0952 13.6676 11.0612 13.6163 11.0366 13.5594M0.244212 13.0825C0.216004 13.1372 0.197345 13.1976 0.18893 13.2603C0.180447 13.3234 0.182473 13.3879 0.194933 13.4502C0.207391 13.5124 0.230133 13.5716 0.262291 13.6241C0.294453 13.6765 0.335624 13.7216 0.383978 13.7558C0.432402 13.7901 0.486944 13.8126 0.544389 13.8212C0.601887 13.8297 0.660084 13.8239 0.715159 13.8043C0.770142 13.7848 0.820199 13.7523 0.862702 13.7097C0.904833 13.6676 0.938835 13.6163 0.963343 13.5594C2.03391 11.2969 3.91855 9.95751 6 9.95751C8.08144 9.95751 9.96608 11.2969 11.0366 13.5594M0.244212 13.0825L11.0366 13.5594" fill="#999999" stroke="#999999" stroke-width="0.15"/>
</svg>
