<svg width="216" height="66" viewBox="0 0 216 66" fill="none" xmlns="http://www.w3.org/2000/svg">
<mask id="mask0_135_126" style="mask-type:luminance" maskUnits="userSpaceOnUse" x="18" y="0" width="21" height="45">
<path d="M18.7108 0H38.7278V44.6198H18.7108V0Z" fill="white"/>
</mask>
<g mask="url(#mask0_135_126)">
<path d="M28.7594 21.1228C28.5425 20.0995 26.4229 11.4397 33.6682 5.68919C33.6682 5.68919 30.0279 10.987 30.5253 16.8718C35.5567 13.5286 38.7255 7.80642 38.6783 1.52075L38.6689 0.0212402L37.2307 0.443271C27.2481 4.26749 23.8671 12.4959 24.7089 19.8331C25.0248 23.8177 26.0645 27.0972 25.9325 30.6904C25.626 38.9801 18.791 44.41 18.791 44.41C33.0222 37.0869 29.9312 26.6469 28.7594 21.1228Z" fill="#80CC28"/>
</g>
<mask id="mask1_135_126" style="mask-type:luminance" maskUnits="userSpaceOnUse" x="9" y="15" width="13" height="48">
<path d="M9.6572 15.0446H21.1251V62.9227H9.6572V15.0446Z" fill="white"/>
</mask>
<g mask="url(#mask1_135_126)">
<path d="M14.2382 21.8443C14.2382 21.8443 16.6195 27.8187 14.8395 33.4466C10.6663 29.0754 8.83907 22.7944 10.2678 16.6738L10.6097 15.2144L11.9182 15.9429C20.8115 21.8796 22.2969 30.6527 19.8567 37.6221C18.6731 41.4392 16.9355 44.4099 16.2729 47.9394C14.7475 56.0924 20.215 62.8992 20.215 62.8992C7.95021 52.6124 13.2645 43.1132 15.6246 37.9828C16.0608 37.035 20.0382 29.0589 14.2382 21.8443Z" fill="#80CC28"/>
</g>
<path d="M23.2588 11.8028C22.5798 14.2737 20.0288 15.726 17.5626 15.0446C15.0964 14.3656 13.6464 11.8122 14.3255 9.34133C15.0045 6.87045 17.5555 5.42045 20.0217 6.09947C22.4879 6.7785 23.9379 9.3319 23.2588 11.8028Z" fill="#80CC28"/>
<mask id="mask2_135_126" style="mask-type:luminance" maskUnits="userSpaceOnUse" x="8" y="57" width="14" height="9">
<path d="M8.45004 57.2948H21.7287V65.1413H8.45004V57.2948Z" fill="white"/>
</mask>
<g mask="url(#mask2_135_126)">
<mask id="mask3_135_126" style="mask-type:luminance" maskUnits="userSpaceOnUse" x="-6" y="22" width="28" height="47">
<path d="M8.44298 22.9689L21.2524 64.4953L7.4103 68.7651L-5.39917 27.2387L8.44298 22.9689Z" fill="white"/>
</mask>
<g mask="url(#mask3_135_126)">
<mask id="mask4_135_126" style="mask-type:luminance" maskUnits="userSpaceOnUse" x="-6" y="23" width="28" height="46">
<path d="M21.3161 64.7052L8.50899 23.1787L-5.33316 27.4485L7.47395 68.975L21.3161 64.7052Z" fill="white"/>
</mask>
<g mask="url(#mask4_135_126)">
<mask id="mask5_135_126" style="mask-type:luminance" maskUnits="userSpaceOnUse" x="-6" y="23" width="28" height="46">
<path d="M21.3161 64.7052L8.50899 23.1787L-5.33316 27.4485L7.47395 68.975L21.3161 64.7052Z" fill="white"/>
</mask>
<g mask="url(#mask5_135_126)">
<path d="M17.7371 61.4703C19.6775 63.5192 21.3067 64.7122 21.3067 64.7122C16.6643 63.4909 12.3403 61.0365 8.832 57.7286C12.3686 60.0911 15.502 61.0742 17.7371 61.4703Z" fill="#007EB2"/>
</g>
</g>
</g>
</g>
<mask id="mask6_135_126" style="mask-type:luminance" maskUnits="userSpaceOnUse" x="0" y="24" width="19" height="38">
<path d="M0 24.0981H18.1073V61.5198H0V24.0981Z" fill="white"/>
</mask>
<g mask="url(#mask6_135_126)">
<mask id="mask7_135_126" style="mask-type:luminance" maskUnits="userSpaceOnUse" x="-6" y="22" width="28" height="47">
<path d="M8.44298 22.9688L21.2524 64.4952L7.4103 68.765L-5.39917 27.2386L8.44298 22.9688Z" fill="white"/>
</mask>
<g mask="url(#mask7_135_126)">
<mask id="mask8_135_126" style="mask-type:luminance" maskUnits="userSpaceOnUse" x="-6" y="23" width="28" height="46">
<path d="M21.3161 64.705L8.50899 23.1786L-5.33316 27.4484L7.47395 68.9749L21.3161 64.705Z" fill="white"/>
</mask>
<g mask="url(#mask8_135_126)">
<mask id="mask9_135_126" style="mask-type:luminance" maskUnits="userSpaceOnUse" x="-6" y="23" width="28" height="46">
<path d="M21.3161 64.705L8.50899 23.1786L-5.33316 27.4484L7.47395 68.9749L21.3161 64.705Z" fill="white"/>
</mask>
<g mask="url(#mask9_135_126)">
<path d="M4.1095 24.7111C4.80503 24.8219 4.93942 25.4702 4.88991 26.1705C4.88991 26.1705 3.46349 30.6006 3.68511 34.92C3.89023 38.9564 5.19405 43.1531 7.60599 42.9103C8.98526 42.7712 8.94282 36.5421 8.94282 36.5421C9.40965 34.5262 12.1328 37.2989 11.3571 46.758C10.8526 52.907 14.6839 58.2472 17.7371 61.4702C15.502 61.0741 12.3686 60.0909 8.83201 57.7285C6.76665 55.7834 4.98421 53.5436 3.58137 51.0821C0.0424416 44.8672 -0.424385 37.5134 1.40992 30.6808C1.88853 28.8984 2.51569 27.156 3.28194 25.475C3.58609 24.8077 3.7417 24.6521 4.1095 24.7111Z" fill="#0092CD"/>
</g>
</g>
</g>
</g>
<path d="M58.2142 18.8472C58.3887 18.5218 58.6858 18.2955 59.1007 18.1681C59.5157 18.0361 60.0367 17.9701 60.6662 17.9701C61.2934 17.9701 61.7909 18.0243 62.1563 18.1304C62.5265 18.2389 62.8094 18.3709 63.0051 18.5265C63.1984 18.6774 63.354 18.892 63.4672 19.1678C63.5733 19.5403 63.6275 20.1062 63.6275 20.8654V38.9349C63.6275 39.4324 63.611 39.8073 63.5804 40.0572C63.5474 40.3094 63.4436 40.5947 63.2692 40.9154C62.9674 41.5072 62.121 41.8019 60.7323 41.8019C59.2092 41.8019 58.3203 41.4011 58.0633 40.5947C57.9313 40.2246 57.8653 39.6587 57.8653 38.8972V32.2956H49.236V38.9349C49.236 39.4324 49.2195 39.8073 49.1889 40.0572C49.1559 40.3094 49.0521 40.5947 48.8777 40.9154C48.5759 41.5072 47.7295 41.8019 46.3408 41.8019C44.8177 41.8019 43.9288 41.4011 43.6718 40.5947C43.5398 40.2246 43.4738 39.6587 43.4738 38.8972V20.8276C43.4738 20.3325 43.4879 19.96 43.5209 19.7148C43.5516 19.4649 43.6553 19.1749 43.8322 18.8472C44.1339 18.2624 44.978 17.9701 46.3691 17.9701C47.8898 17.9701 48.7928 18.3709 49.0757 19.1678C49.1818 19.5403 49.236 20.1062 49.236 20.8654V27.5047H57.8653V20.8276C57.8653 20.3325 57.8794 19.96 57.9124 19.7148C57.9431 19.4649 58.0445 19.1749 58.2142 18.8472Z" fill="#8BD039"/>
<path d="M82.7651 31.2017C82.7651 32.5361 82.4303 33.5217 81.7654 34.163C81.1053 34.8043 80.372 35.1249 79.568 35.1249H71.8536C71.8536 35.7356 72.212 36.2472 72.9287 36.6621C73.6454 37.0724 74.3622 37.2751 75.0789 37.2751C76.3356 37.2751 77.3235 37.1431 78.0402 36.879L78.3986 36.747C78.9197 36.516 79.3535 36.3981 79.7001 36.3981C80.3979 36.3981 80.9944 36.8861 81.4919 37.8599C81.7749 38.4446 81.9163 38.9444 81.9163 39.3594C81.9163 41.2903 79.6058 42.2546 74.9846 42.2546C73.3743 42.2546 71.9432 41.9764 70.6936 41.4247C69.4487 40.873 68.4797 40.1398 67.7889 39.2273C66.4167 37.4685 65.733 35.5021 65.733 33.333C65.733 30.5981 66.6147 28.4148 68.383 26.7786C70.156 25.1376 72.3652 24.3171 75.0129 24.3171C78.0308 24.3171 80.2423 25.3805 81.6522 27.5048C82.3926 28.6365 82.7651 29.8696 82.7651 31.2017ZM75.89 32.1636C76.7128 32.1636 77.1254 31.8147 77.1254 31.1168C77.1254 30.6217 76.9368 30.2209 76.5596 29.9191C76.1824 29.6126 75.6377 29.457 74.928 29.457C74.2231 29.457 73.5228 29.747 72.825 30.3246C72.1318 30.8975 71.7876 31.5105 71.7876 32.1636H75.89Z" fill="#8BD039"/>
<path d="M96.01 26.4956C96.135 25.2837 96.9908 24.6754 98.5752 24.6754C99.424 24.6754 100.051 24.7414 100.461 24.8735C100.876 25.0008 101.164 25.2271 101.329 25.5525C101.492 25.8802 101.588 26.1702 101.621 26.4201C101.652 26.6653 101.669 27.0402 101.669 27.5424V38.9349C101.669 39.4324 101.652 39.8072 101.621 40.0571C101.588 40.3094 101.499 40.5947 101.348 40.9154C101.039 41.4812 100.294 41.7641 99.1127 41.7641C97.9292 41.7641 97.137 41.6203 96.7362 41.3303C96.333 41.0356 96.0996 40.6041 96.0383 40.0383C95.2319 41.1889 93.8904 41.7641 92.0113 41.7641C90.1369 41.7641 88.3946 40.9106 86.7866 39.1989C85.1834 37.4825 84.3817 35.4903 84.3817 33.2198C84.3817 30.9517 85.1881 28.9641 86.8055 27.2595C88.4276 25.5572 90.2029 24.7037 92.1339 24.7037C92.8695 24.7037 93.5415 24.8357 94.1521 25.0998C94.7604 25.3592 95.1824 25.6044 95.4159 25.8354C95.654 26.0618 95.852 26.2834 96.01 26.4956ZM90.078 33.2669C90.078 33.9837 90.3609 34.632 90.9268 35.2097C91.4926 35.7826 92.174 36.0679 92.9733 36.0679C93.7772 36.0679 94.4445 35.7755 94.9726 35.1908C95.5054 34.6061 95.7742 33.9625 95.7742 33.2575C95.7742 32.5478 95.5196 31.89 95.0103 31.2864C94.5011 30.6782 93.8173 30.3717 92.9638 30.3717C92.108 30.3717 91.4125 30.6782 90.8796 31.2864C90.3444 31.89 90.078 32.5502 90.078 33.2669Z" fill="#8BD039"/>
<path d="M104.269 19.4602C104.269 18.9651 104.284 18.5926 104.317 18.3474C104.347 18.0975 104.442 17.8075 104.6 17.4797C104.901 16.895 105.745 16.6027 107.136 16.6027C108.457 16.6027 109.28 16.895 109.607 17.4797C109.782 17.8075 109.886 18.1022 109.919 18.3662C109.949 18.6256 109.966 19.0028 109.966 19.4979V34.5685C109.966 35.3489 110.032 35.8416 110.164 36.0491C110.296 36.2566 110.581 36.3603 111.022 36.3603C111.468 36.3603 111.767 36.3768 111.918 36.4075C112.069 36.4405 112.253 36.5348 112.474 36.6904C112.908 36.9686 113.125 37.7372 113.125 39.001C113.125 40.3661 112.908 41.1983 112.474 41.5001C111.908 41.8962 110.562 41.9622 108.438 41.6982C106.764 41.486 105.679 40.9319 105.184 40.0384C104.574 38.9774 104.269 37.2845 104.269 34.9645V19.4602Z" fill="#8BD039"/>
<path d="M124.871 30.4377L122.758 30.3057V34.7948C122.758 35.3865 122.848 35.8109 123.032 36.0679C123.221 36.3273 123.57 36.4546 124.079 36.4546C124.588 36.4546 124.977 36.4735 125.248 36.5112C125.517 36.5442 125.807 36.6432 126.116 36.813C126.611 37.0959 126.861 37.8268 126.861 39.0009C126.861 40.366 126.554 41.1983 125.946 41.5001C125.625 41.6581 125.338 41.7524 125.088 41.783C124.836 41.816 124.47 41.8302 123.994 41.8302C121.735 41.8302 120.019 41.3209 118.845 40.3024C117.675 39.2838 117.091 37.558 117.091 35.1248V30.3057C116.68 30.3693 116.237 30.4 115.761 30.4C115.282 30.4 114.886 30.2184 114.572 29.853C114.257 29.4828 114.101 28.8533 114.101 27.9668C114.101 27.0756 114.153 26.4272 114.261 26.0241C114.367 25.6232 114.518 25.3356 114.714 25.1658C115.065 24.8829 115.499 24.7415 116.015 24.7415L117.091 24.8735V21.5161C117.091 21.021 117.105 20.6532 117.138 20.4127C117.175 20.1746 117.279 19.9129 117.449 19.6299C117.732 19.0829 118.566 18.8094 119.957 18.8094C121.433 18.8094 122.315 19.2126 122.598 20.0166C122.704 20.3632 122.758 20.9172 122.758 21.6764V24.8735C123.713 24.7863 124.432 24.7415 124.918 24.7415C125.409 24.7415 125.779 24.758 126.031 24.7886C126.281 24.8216 126.569 24.9254 126.889 25.0998C127.455 25.3828 127.738 26.2174 127.738 27.599C127.738 28.9712 127.446 29.8058 126.861 30.1076C126.533 30.2585 126.243 30.3528 125.993 30.3905C125.748 30.4236 125.373 30.4377 124.871 30.4377Z" fill="#8BD039"/>
<path d="M139.031 24.7415C141.2 24.7415 143.004 25.5667 144.445 27.2124C145.89 28.8604 146.614 30.8787 146.614 33.267V39.001C146.614 39.4985 146.597 39.8733 146.567 40.1233C146.534 40.3685 146.43 40.6561 146.255 40.9815C145.977 41.5473 145.145 41.8302 143.756 41.8302C142.429 41.8302 141.601 41.5473 141.276 40.9815C141.106 40.6561 141.002 40.3637 140.965 40.1044C140.932 39.8474 140.918 39.4584 140.918 38.935V33.2387C140.918 32.3475 140.665 31.652 140.163 31.1545C139.666 30.6523 139.031 30.4 138.258 30.4C137.489 30.4 136.815 30.6358 136.23 31.1074C135.646 31.5742 135.309 32.0976 135.221 32.6823V39.001C135.221 39.4985 135.205 39.8733 135.174 40.1233C135.141 40.3685 135.037 40.6561 134.863 40.9815C134.58 41.5473 133.743 41.8302 132.354 41.8302C130.989 41.8302 130.157 41.5379 129.855 40.9532C129.697 40.6278 129.603 40.3449 129.572 40.1044C129.539 39.8663 129.525 39.4867 129.525 38.9633V19.498C129.525 19.0028 129.539 18.628 129.572 18.3757C129.603 18.1258 129.697 17.8476 129.855 17.5458C130.157 16.9611 131.001 16.6687 132.392 16.6687C133.755 16.6687 134.58 16.9611 134.863 17.5458C135.037 17.8735 135.141 18.1635 135.174 18.4134C135.205 18.6586 135.221 19.0311 135.221 19.5263V26.722C136.308 25.4017 137.579 24.7415 139.031 24.7415Z" fill="#8BD039"/>
<path d="M167.142 22.8542C167.72 24.0236 168.01 25.3251 168.01 26.7586C168.01 28.1921 167.72 29.4912 167.142 30.6535C166.569 31.8112 165.833 32.733 164.935 33.4168C163.098 34.8267 161.2 35.5293 159.239 35.5293H155.099V39.2733C155.099 39.7779 155.082 40.1575 155.052 40.4145C155.019 40.6667 154.915 40.9591 154.74 41.2915C154.431 41.8833 153.571 42.178 152.156 42.178C150.614 42.178 149.709 41.7725 149.44 40.9615C149.308 40.5842 149.242 40.0089 149.242 39.2356V20.8737C149.242 20.3645 149.256 19.9849 149.289 19.7326C149.327 19.4756 149.433 19.1832 149.61 18.8555C149.916 18.259 150.779 17.9596 152.194 17.9596H159.277C161.212 17.9596 163.098 18.6646 164.935 20.0721C165.833 20.7582 166.569 21.6848 167.142 22.8542ZM159.277 29.6727C159.937 29.6727 160.583 29.4322 161.219 28.9465C161.861 28.4632 162.181 27.737 162.181 26.768C162.181 25.7943 161.861 25.0587 161.219 24.5612C160.583 24.0661 159.923 23.8162 159.239 23.8162H155.099V29.6727H159.277Z" fill="#70C3DE"/>
<path d="M170.148 19.4779C170.148 18.9758 170.162 18.5985 170.195 18.3462C170.233 18.0893 170.327 17.7945 170.478 17.4597C170.791 16.8703 171.652 16.5732 173.062 16.5732C174.406 16.5732 175.245 16.8703 175.58 17.4597C175.754 17.7945 175.858 18.0916 175.891 18.3557C175.922 18.6197 175.938 19.0064 175.938 19.5157V34.8314C175.938 35.6307 176.004 36.1329 176.136 36.3403C176.273 36.5478 176.565 36.6515 177.013 36.6515C177.466 36.6515 177.77 36.6704 177.928 36.7081C178.084 36.7411 178.272 36.8354 178.494 36.9911C178.933 37.274 179.154 38.0567 179.154 39.3393C179.154 40.7304 178.933 41.5792 178.494 41.8857C177.914 42.2818 176.547 42.3478 174.392 42.0837C172.687 41.8645 171.584 41.301 171.081 40.3956C170.459 39.3158 170.148 37.5946 170.148 35.2369V19.4779Z" fill="#70C3DE"/>
<path d="M188.707 42.1498C186.482 42.1498 184.633 41.3081 183.162 39.6224C181.695 37.9319 180.964 35.8736 180.964 33.4452V27.6546C180.964 27.1265 180.979 26.7445 181.012 26.504C181.049 26.2588 181.144 25.9712 181.295 25.6364C181.608 25.0399 182.469 24.7405 183.879 24.7405C185.425 24.7405 186.331 25.1625 186.595 26.0042C186.727 26.3579 186.793 26.919 186.793 27.6923V33.4829C186.793 34.3835 187.05 35.0861 187.566 35.5954C188.087 36.1047 188.783 36.3593 189.65 36.3593C190.523 36.3593 191.23 36.0952 191.772 35.5671C192.312 35.0343 192.583 34.3387 192.583 33.4829V27.6263C192.583 27.1171 192.597 26.7375 192.63 26.4852C192.668 26.2282 192.774 25.9335 192.951 25.5987C193.234 25.0281 194.083 24.7405 195.497 24.7405C196.886 24.7405 197.735 25.0399 198.044 25.6364C198.199 25.9712 198.294 26.2636 198.327 26.5135C198.357 26.7658 198.374 27.1453 198.374 27.6546V39.3677C198.374 39.8534 198.357 40.2236 198.327 40.4806C198.294 40.7329 198.188 41.0134 198.006 41.3199C197.678 41.8929 196.83 42.1781 195.46 42.1781C194.113 42.1781 193.286 41.9141 192.979 41.386C192.758 41.0158 192.649 40.5631 192.649 40.0279C192.56 40.1859 192.362 40.4099 192.055 40.6975C191.746 40.9804 191.447 41.2233 191.159 41.4237C190.409 41.9094 189.594 42.1498 188.707 42.1498Z" fill="#70C3DE"/>
<path d="M201.142 40.6598C200.727 40.3957 200.52 39.9784 200.52 39.4055C200.52 38.8349 200.937 37.9625 201.774 36.7931C202.019 36.4159 202.411 36.2273 202.953 36.2273C203.493 36.2273 204.226 36.4984 205.15 37.0383C206.074 37.5806 206.914 37.8494 207.668 37.8494C209.012 37.8494 209.686 37.5853 209.686 37.0572C209.686 36.6375 208.946 36.3263 207.47 36.1235C206.079 35.9302 204.7 35.4115 203.33 34.5674C202.689 34.1713 202.156 33.5489 201.736 32.7001C201.321 31.8513 201.114 30.8422 201.114 29.6728C201.114 26.1905 203.505 24.4481 208.291 24.4481C209.856 24.4481 211.469 24.823 213.129 25.5704C213.895 25.924 214.279 26.3673 214.279 26.9001C214.279 27.4283 214.036 28.079 213.553 28.8523C213.067 29.6209 212.572 30.0029 212.063 30.0029C211.799 30.0029 211.309 29.8402 210.592 29.5125C209.875 29.1801 209.097 29.0127 208.262 29.0127C206.961 29.0127 206.31 29.2555 206.31 29.7388C206.31 30.399 207.058 30.8305 208.555 31.0309C210.012 31.1888 211.426 31.6061 212.799 32.2852C213.433 32.594 213.963 33.1316 214.392 33.8978C214.826 34.6594 215.043 35.6119 215.043 36.7554C215.043 37.9012 214.826 38.8773 214.392 39.6884C213.963 40.4947 213.367 41.0936 212.601 41.4897C211.186 42.1758 209.413 42.5177 207.282 42.5177C205.155 42.5177 203.108 41.8999 201.142 40.6598Z" fill="#70C3DE"/>
<path d="M65.7671 51.4727C65.786 52.1942 65.7954 52.8968 65.8048 53.5805H63.1501V51.3313C62.8931 51.3218 62.5889 51.369 62.3319 51.4633C62.372 53.2764 62.3814 54.9362 62.3909 56.4829C62.7115 56.5206 63.0251 56.4829 63.1501 56.4451V54.2525H65.8143C65.8237 55.0305 65.8237 55.7708 65.8237 56.4923C66.1467 56.53 66.4603 56.4923 66.5829 56.4546V51.3407C66.3283 51.3313 66.0241 51.3784 65.7671 51.4727Z" fill="black"/>
<path d="M69.9536 56.4639H73.2733C73.3204 56.2847 73.3204 55.9805 73.2733 55.799H70.7128V54.2146H72.8654C72.9031 54.0354 72.9031 53.7501 72.8654 53.5686H70.7128V52.0526H73.2167C73.2544 51.871 73.2544 51.5669 73.2167 51.3877H70.9014C70.3992 51.3877 70.1328 51.416 69.8947 51.482C69.9348 53.2668 69.9442 54.9361 69.9536 56.4639Z" fill="black"/>
<path d="M78.7306 51.3878C78.4547 51.3406 77.9902 51.3406 77.7144 51.3878L75.8542 56.3979C76.0829 56.4828 76.3964 56.5583 76.6228 56.5488L77.1273 55.1059H79.2705L79.7915 56.5488C80.0202 56.5583 80.3621 56.4828 80.5908 56.3979L78.7306 51.3878ZM77.3537 54.4717L78.1789 52.1092L79.0441 54.4717H77.3537Z" fill="black"/>
<path d="M83.485 56.464H86.55C86.5877 56.2848 86.5877 55.9807 86.55 55.7991H84.2442V51.3313C83.9872 51.3218 83.683 51.369 83.426 51.4633C83.4661 53.2764 83.4755 54.9362 83.485 56.464Z" fill="black"/>
<path d="M90.7531 56.4827C91.0761 56.5204 91.3873 56.4827 91.5122 56.445V52.0526H93.1249C93.1721 51.871 93.1721 51.5669 93.1249 51.3877H89.0909C89.0531 51.5669 89.0531 51.871 89.0909 52.0526H90.7059C90.7342 53.38 90.7531 55.0492 90.7531 56.4827Z" fill="black"/>
<path d="M99.4721 51.4727C99.491 52.1942 99.5004 52.8968 99.5098 53.5805H96.855V51.3313C96.598 51.3218 96.2939 51.369 96.0369 51.4633C96.077 53.2764 96.0864 54.9362 96.0958 56.4829C96.4165 56.5206 96.7301 56.4829 96.855 56.4451V54.2525H99.5192C99.5287 55.0305 99.5287 55.7708 99.5287 56.4923C99.8517 56.53 100.165 56.4923 100.288 56.4546V51.3407C100.033 51.3313 99.7291 51.3784 99.4721 51.4727Z" fill="black"/>
<path d="M106.761 51.3311L105.356 53.9104L103.913 51.3311C103.687 51.3217 103.345 51.3783 103.116 51.4726L104.958 54.6413C104.967 55.3345 104.967 55.9428 104.967 56.4827C105.281 56.5204 105.604 56.4827 105.717 56.445V54.6413L107.558 51.4726C107.33 51.3783 106.988 51.3217 106.761 51.3311Z" fill="black"/>
<path d="M114.543 56.464H117.608C117.645 56.2848 117.645 55.9807 117.608 55.7991H115.302V51.3313C115.045 51.3218 114.741 51.369 114.484 51.4633C114.524 53.2764 114.533 54.9362 114.543 56.464Z" fill="black"/>
<path d="M120.577 56.4829C120.898 56.5206 121.212 56.4829 121.337 56.4451V51.3313C121.08 51.3218 120.776 51.369 120.519 51.4633C120.559 53.2764 120.568 54.9362 120.577 56.4829Z" fill="black"/>
<path d="M124.696 56.4827C125.016 56.5204 125.33 56.4827 125.455 56.445V54.2523H127.579C127.626 54.0731 127.626 53.769 127.579 53.5898H125.455V52.0526H127.921C127.959 51.871 127.959 51.5669 127.921 51.3877H125.644C125.141 51.3877 124.875 51.416 124.637 51.482C124.677 53.2762 124.686 54.9361 124.696 56.4827Z" fill="black"/>
<path d="M130.949 56.4639H134.269C134.316 56.2847 134.316 55.9805 134.269 55.799H131.708V54.2146H133.861C133.899 54.0354 133.899 53.7501 133.861 53.5686H131.708V52.0526H134.212C134.25 51.871 134.25 51.5669 134.212 51.3877H131.897C131.395 51.3877 131.128 51.416 130.89 51.482C130.93 53.2668 130.94 54.9361 130.949 56.4639Z" fill="black"/>
<path d="M138.748 56.5959C139.924 56.5959 140.711 56.0937 140.711 55.0492C140.711 54.349 140.256 53.9482 139.365 53.6275L138.766 53.3988C138.179 53.1796 137.998 52.9344 137.998 52.5642C137.998 52.3355 138.073 52.1658 138.208 52.0526C138.434 51.9748 138.681 51.9465 138.967 51.9465C139.422 51.9465 139.867 52.0432 140.238 52.2506C140.379 52.0903 140.476 51.8333 140.523 51.6046C140.115 51.3689 139.573 51.2439 139.052 51.2439C137.903 51.2439 137.21 51.8145 137.21 52.7151C137.21 53.4083 137.637 53.8162 138.472 54.1109L139.061 54.3372C139.698 54.5753 139.933 54.804 139.933 55.1931C139.933 55.4383 139.858 55.6104 139.745 55.733C139.535 55.8367 139.261 55.9051 138.842 55.9051C138.321 55.9051 137.712 55.7707 137.335 55.5255C137.21 55.6858 137.107 55.9805 137.088 56.1975C137.448 56.4356 138.073 56.5959 138.748 56.5959Z" fill="black"/>
<path d="M145.097 56.4827C145.42 56.5204 145.731 56.4827 145.856 56.445V52.0526H147.469C147.516 51.871 147.516 51.5669 147.469 51.3877H143.434C143.397 51.5669 143.397 51.871 143.434 52.0526H145.049C145.078 53.38 145.097 55.0492 145.097 56.4827Z" fill="black"/>
<path d="M153.542 51.3311L152.137 53.9104L150.694 51.3311C150.468 51.3217 150.126 51.3783 149.897 51.4726L151.739 54.6413C151.748 55.3345 151.748 55.9428 151.748 56.4827C152.062 56.5204 152.385 56.4827 152.498 56.445V54.6413L154.339 51.4726C154.11 51.3783 153.769 51.3217 153.542 51.3311Z" fill="black"/>
<path d="M157.196 56.464H160.261C160.298 56.2848 160.298 55.9807 160.261 55.7991H157.955V51.3313C157.698 51.3218 157.394 51.369 157.137 51.4633C157.177 53.2764 157.186 54.9362 157.196 56.464Z" fill="black"/>
<path d="M163.231 56.4639H166.55C166.597 56.2847 166.597 55.9805 166.55 55.799H163.99V54.2146H166.142C166.18 54.0354 166.18 53.7501 166.142 53.5686H163.99V52.0526H166.494C166.531 51.871 166.531 51.5669 166.494 51.3877H164.178C163.676 51.3877 163.41 51.416 163.172 51.482C163.212 53.2668 163.221 54.9361 163.231 56.4639Z" fill="black"/>
<path d="M175.973 56.5959C176.562 56.5959 177.149 56.4544 177.538 56.188C177.5 56.0182 177.387 55.7518 177.274 55.5821C176.961 55.7801 176.534 55.9051 176.107 55.9051C174.931 55.9051 174.303 55.1365 174.303 53.9199C174.303 53.0758 174.542 52.5642 174.815 52.2035C175.119 52.0526 175.527 51.9559 175.982 51.9559C176.428 51.9559 176.857 52.062 177.218 52.2695C177.368 52.0903 177.472 51.8522 177.51 51.614C177.13 51.3783 176.619 51.2533 176.039 51.2533C174.435 51.2533 173.488 52.2317 173.488 53.9199C173.488 55.5066 174.351 56.5959 175.973 56.5959Z" fill="black"/>
<path d="M182.92 51.3878C182.644 51.3406 182.18 51.3406 181.904 51.3878L180.044 56.3979C180.272 56.4828 180.586 56.5583 180.812 56.5488L181.317 55.1059H183.46L183.981 56.5488C184.21 56.5583 184.552 56.4828 184.78 56.3979L182.92 51.3878ZM181.543 54.4717L182.368 52.1092L183.234 54.4717H181.543Z" fill="black"/>
<path d="M187.674 56.4828C187.995 56.5205 188.309 56.4828 188.434 56.4451V54.3184H189.096L190.728 56.5016C190.947 56.5111 191.336 56.4545 191.574 56.3602L189.893 54.2147C190.787 54.0732 191.242 53.5899 191.242 52.7906C191.242 51.8428 190.52 51.2935 189.315 51.2935C188.688 51.2935 188.082 51.3595 187.615 51.4538C187.655 53.2952 187.665 54.9361 187.674 56.4828ZM188.434 53.6936V51.9937C188.434 51.9937 188.735 51.956 189.212 51.956C189.99 51.956 190.435 52.2601 190.435 52.8118C190.435 53.1608 190.369 53.3706 190.207 53.5404C189.999 53.637 189.685 53.6936 189.325 53.6936H188.434Z" fill="black"/>
<path d="M194.44 56.4639H197.76C197.807 56.2847 197.807 55.9805 197.76 55.799H195.199V54.2146H197.352C197.39 54.0354 197.39 53.7501 197.352 53.5686H195.199V52.0526H197.703C197.741 51.871 197.741 51.5669 197.703 51.3877H195.388C194.886 51.3877 194.619 51.416 194.381 51.482C194.421 53.2668 194.431 54.9361 194.44 56.4639Z" fill="black"/>
<mask id="mask10_135_126" style="mask-type:luminance" maskUnits="userSpaceOnUse" x="23" y="42" width="16" height="16">
<path d="M23.464 42.0427H38.8551V57.4339H23.464V42.0427Z" fill="white"/>
</mask>
<g mask="url(#mask10_135_126)">
<path fill-rule="evenodd" clip-rule="evenodd" d="M33.4984 47.5881C33.3522 47.5881 33.2343 47.4702 33.2343 47.324V42.842C33.2343 42.4035 32.8783 42.0498 32.4421 42.0498H29.8015C29.363 42.0498 29.0093 42.4035 29.0093 42.842V47.324C29.0093 47.4702 28.8914 47.5881 28.7452 47.5881H24.2632C23.8247 47.5881 23.471 47.9417 23.471 48.3803V51.0209C23.471 51.4571 23.8247 51.8131 24.2632 51.8131H28.7452C28.8914 51.8131 29.0093 51.931 29.0093 52.0748V56.5592C29.0093 56.9954 29.363 57.349 29.8015 57.349H32.4421C32.8783 57.349 33.2343 56.9954 33.2343 56.5592V52.0748C33.2343 51.931 33.3522 51.8131 33.4984 51.8131H37.9804C38.4166 51.8131 38.7726 51.4571 38.7726 51.0209V48.3803C38.7726 47.9417 38.4166 47.5881 37.9804 47.5881H33.4984Z" fill="#50BCE8"/>
</g>
</svg>
